<svg version="1" xmlns="http://www.w3.org/2000/svg" width="206.667" height="206.667" viewBox="0 0 155.000000 155.000000"><path d="M63.1 1c-7.5 1.6-14.3 4.1-22.6 8.3-11.2 5.8-25.4 19.9-31.2 31.2C2.1 54.6.5 61.3.6 78c0 13 .3 15.3 2.7 22.5 4.4 13.2 9.9 21.9 20.1 32C38 147 53.6 153.9 73.1 154.6c36.7 1.3 66.2-19 78-53.6 3-8.9 3.3-10.4 3.3-23.5.1-16.1-1.5-23.1-8.7-37-5.5-10.7-19-24.5-29.7-30.4C103.5 3.2 94.5.8 80 .4 73.1.2 65.5.5 63.1 1zm31.5 20.1c7.2 2.7 13.2 8.2 17.2 15.7l3.1 5.8-8.5 2.8c-4.6 1.6-8.5 2.7-8.7 2.5-.1-.2-1.2-2.2-2.3-4.4-3.2-6-7.5-8.5-14.5-8.5-12.5 0-18.4 5.9-16.5 16.4.9 4.6 4.8 8.3 12.6 11.8 24 10.9 29.2 14.7 33.9 24.8 3.7 8 3.6 20.2-.1 28.2-3.2 6.9-8.8 12.5-16.5 16.3-5.4 2.8-6.5 3-17.3 3-12.9 0-17.6-1.5-25.5-7.9-4-3.3-10.5-13.8-10.5-16.9 0-.9 2.7-2.4 7.3-4.1 3.9-1.4 7.5-2.6 7.9-2.6.4 0 1.5 1.7 2.3 3.7 3.6 8.6 11.4 13 21.2 12 9.8-1 14.8-6.4 14.8-16 0-11-3.3-14.5-20.6-21.7C53.5 73.4 46 64.5 46 49.1c.1-14.3 7.6-24.3 21.5-28.7 6.7-2.1 20.5-1.7 27.1.7z"/></svg>